<svg width="144" height="144" viewBox="0 0 144 144" fill="none" xmlns="http://www.w3.org/2000/svg">
<rect width="144" height="144" rx="72" fill="#E0FF22"/>
<path d="M73.6992 107.741L77.0889 104.351L85.1783 96.2617L95.0045 86.4355L103.452 77.988C104.823 76.617 106.217 75.2687 107.565 73.8748L107.626 73.8138C108.502 72.9378 108.502 71.4601 107.626 70.5841L104.237 67.1945L96.1471 59.105L86.3209 49.2789L77.8735 40.8314C76.5024 39.4603 75.1541 38.0664 73.7602 36.7181L73.6992 36.6572C72.8537 35.8117 71.2998 35.7507 70.4696 36.6572C69.6317 37.5712 69.5631 38.988 70.4696 39.8869L73.8592 43.2765L81.9487 51.366L91.7748 61.1921L100.222 69.6396C101.593 71.0107 102.934 72.4123 104.336 73.7529L104.397 73.8138V70.5841L101.007 73.9738L92.9174 82.0632L83.0912 91.8894L74.6438 100.337C73.2727 101.708 71.8787 103.056 70.5305 104.45L70.4696 104.511C69.6241 105.357 69.5631 106.911 70.4696 107.741C71.376 108.579 72.7928 108.647 73.6992 107.741Z" fill="#130E5B"/>
<path d="M106.027 69.9138H41.0368C40.1608 69.9138 39.2772 69.9062 38.4012 69.9138H38.287C37.0911 69.9138 35.9485 70.965 36.0018 72.1989C36.0551 73.4405 37.0073 74.4841 38.287 74.4841H103.277C104.153 74.4841 105.036 74.4917 105.912 74.4841H106.027C107.223 74.4841 108.365 73.4329 108.312 72.1989C108.251 70.9573 107.306 69.9138 106.027 69.9138Z" fill="#130E5B"/>
</svg>
